<?xml version="1.0" encoding="utf-8"?>
<!-- Generator: Adobe Illustrator 19.2.1, SVG Export Plug-In . SVG Version: 6.00 Build 0)  -->
<svg version="1.1" xmlns="http://www.w3.org/2000/svg" xmlns:xlink="http://www.w3.org/1999/xlink" x="0px" y="0px" width="110px"
	 height="65px" viewBox="0 0 110 65" style="enable-background:new 0 0 110 65;" xml:space="preserve">
<style type="text/css">
	.st0{fill:#232021;}
	.st1{fill:#E9533F;}
	.st2{fill:#08A7D2;}
</style>
<g id="Layer_1">
	<path class="st0" d="M80.91,56.26c-1.32-0.35-2.29-1.48-2.46-3.04c-0.09-1.74,0.44-3.65,4.05-4.43c-2.55-1.65-3.61-3.91-3.17-6.94
		c0.35-2.52,1.32-4.51,3.78-5.38c2.9-0.95,5.63-0.78,7.74,1.91l0.09-0.09c0-1.65,0.53-1.91,2.2-1.91c0.97,0.09,2.02,0,3.08,0
		c0.35,0,0.53,0,0.44,0.43c0,2.26,0.09,4.77-0.09,7.03c-0.26,2.95-1.23,4.86-4.22,6.16c-1.67,0.61-3.43,0.61-5.19,0.78
		c-0.79,0-1.58-0.09-2.29,0.35c-0.35,0.35-0.35,0.43-0.35,0.87c0,0.35,0.09,0.52,0.44,0.78c0.44,0.17,0.88,0.35,1.41,0.35
		c2.11-0.09,4.22-0.09,6.42,0.43c2.02,0.52,3.52,1.65,4.22,3.65c0.79,2.52-0.7,5.29-2.99,6.51c-2.73,1.39-5.63,1.48-8.62,1.04
		c-1.23-0.09-2.46-0.35-3.61-0.87c-1.41-0.52-2.64-1.3-3.08-2.78c-0.53-1.82,0-3.99,2.02-4.86C80.64,56.52,80.73,56.35,80.91,56.26z
		 M87.59,40.29c-0.88-0.17-1.58,0.35-2.02,0.95c-0.7,1.3-0.79,2.78-0.09,4.25c0.35,0.78,0.88,1.3,1.76,1.3
		c1.14,0.09,2.02-0.17,2.64-1.3c0.44-0.87,0.35-1.65,0.35-2.6C90.23,41.25,89.08,40.29,87.59,40.29z M87.24,57.39
		c-0.7,0-1.14,0-1.67,0c-0.44,0-0.79,0.09-0.88,0.43c-0.7,0.95-0.79,2.52,0.7,3.12c1.58,0.78,3.17,0.61,4.75-0.17
		c1.14-0.61,0.88-2.52-0.35-3.04C88.91,57.22,88.03,57.48,87.24,57.39z"/>
	<path class="st0" d="M0,29.27c2.55,0,4.84,0,7.3,0c0.35,0,0.35,0.09,0.44,0.35c0.35,0.87,0.79,1.65,1.14,2.6
		c0.79,1.74,1.58,3.56,2.29,5.29c0,0.09,0.09,0.17,0.26,0.17c0.26,0,0.26-0.09,0.26-0.35c0.7-1.48,1.32-2.95,2.02-4.34
		c0.53-1.22,1.14-2.34,1.67-3.56c0.09-0.35,0.35-0.17,0.44-0.17c2.2,0,4.4,0,6.6,0c0.35,0,0.44,0.09,0.35,0.43
		c-1.41,2.6-2.73,5.21-4.22,7.9c-0.88,1.65-1.67,3.47-2.64,5.12c-0.7,1.04-0.88,2.26-0.88,3.47c0,3.65,0,7.38,0,11.02
		c0,0.43-0.09,0.61-0.53,0.61c-2.02,0-4.22,0-6.16,0c-0.44,0-0.53-0.09-0.53-0.52c0-4.25,0-8.25,0-12.41c0-0.61-0.26-1.04-0.44-1.65
		c-1.41-2.6-2.73-5.12-4.05-7.64c-1.14-2.08-2.02-3.91-2.99-5.73C0.26,29.7,0.09,29.44,0,29.27z"/>
	<path class="st0" d="M65.78,39.34c0.53-0.95,1.32-1.91,2.29-2.6c0.97-0.61,2.2-0.87,3.43-0.78c1.58,0.09,2.9,0.61,3.87,1.91
		c0.79,0.95,0.97,2.26,1.14,3.47c0,0.43,0.09,0.95,0.09,1.39c0,4.86,0,9.63,0,14.41c0,0.52-0.09,0.61-0.7,0.61
		c-1.67,0-3.34,0-4.84,0c-0.44,0-0.7-0.09-0.7-0.61c0-4.51,0-9.2,0-13.71c0-0.61-0.09-1.22-0.35-1.74
		c-0.35-0.78-0.97-1.04-1.85-1.04c-0.79,0-1.32,0.17-1.76,0.87c-0.53,0.78-0.79,1.65-0.79,2.52c0,4.43,0,8.85,0,13.28
		c0,0.43-0.09,0.61-0.7,0.61c-1.67,0-3.34,0-4.92,0c-0.35,0-0.53-0.09-0.53-0.43c0-6.86,0-13.54,0-20.22c0-0.35,0.09-0.52,0.44-0.52
		c1.76,0,3.43,0,5.19,0c0.35,0,0.44,0.09,0.44,0.43C65.78,37.77,65.78,38.56,65.78,39.34z"/>
	<path class="st0" d="M51.36,54.87c-0.88,1.3-1.85,2.26-3.34,2.78C47.05,58,45.99,58.08,44.94,58c-2.29-0.35-3.61-1.65-4.49-3.82
		c-0.44-1.04-0.44-2.34-0.44-3.56c0-4.51,0-8.94,0-13.54c0-0.43,0.26-0.52,0.7-0.52c1.67,0,3.34,0,4.84,0
		c0.53,0,0.53,0.17,0.53,0.61c0,4.43,0,8.85,0,13.45c0,0.78,0.09,1.39,0.44,1.91c0.88,1.3,2.55,1.3,3.52,0.09
		c0.53-0.78,0.79-1.65,0.79-2.34c0-4.34,0-8.77,0-13.11c0-0.43,0.09-0.61,0.7-0.61c1.67,0,3.43,0,5.1,0c0.35,0,0.53,0.09,0.53,0.52
		c0,6.86,0,13.54,0,20.22c0,0.43-0.09,0.52-0.53,0.43c-0.88,0-1.76,0-2.64,0c-1.41,0.09-2.55-0.52-2.46-2.34
		C51.36,55.05,51.36,54.96,51.36,54.87z"/>
	<path class="st0" d="M28.58,58.26c-1.41,0.09-3.17-0.35-4.75-1.22c-1.58-0.95-2.55-2.26-3.17-3.99c-0.88-2.34-1.14-4.86-0.88-7.46
		c0.09-1.91,0.53-3.65,1.41-5.38c0.97-1.82,2.55-3.21,4.75-3.82s4.31-0.61,6.51,0.09c1.67,0.52,3.08,1.65,3.96,3.21
		c1.76,2.95,2.2,6.25,1.67,9.55c-0.35,2.08-0.97,3.82-2.2,5.56C34.03,57.13,31.66,58.26,28.58,58.26z M31.66,46.97
		c0-0.78-0.09-1.39-0.09-2.17c-0.09-0.78-0.09-1.39-0.35-2.17c-0.35-1.48-1.41-2.52-3.08-2.08c-1.23,0.35-1.58,1.3-1.85,2.26
		c-0.44,2.17-0.53,4.34-0.35,6.6c0.26,0.95,0.35,2.08,0.88,2.95c0.53,0.95,1.85,1.22,2.73,0.78s1.32-1.39,1.58-2.26
		C31.66,49.75,31.66,48.36,31.66,46.97z"/>
	<path class="st1" d="M101.57,20.93c0.88-1.3,2.02-1.91,3.43-1.91c2.11,0,3.43,0.95,4.22,2.95c0.97,2.52,0.97,4.95,0.35,7.55
		c-0.35,1.3-0.97,2.52-2.11,3.39c-1.67,1.3-4.05,0.95-5.63-0.43c-0.09-0.09-0.26-0.35-0.35-0.35c-0.26,0.09-0.09,0.35-0.09,0.43
		c0,1.65,0,3.39,0,4.95c0,0.43-0.09,0.61-0.53,0.52c-0.53,0.09-1.32,0.52-1.76,0.09c-0.35-0.35-0.09-1.22-0.09-1.74
		c0-5.56,0-10.94,0-16.41c0-0.52,0.26-0.78,0.7-0.61c0.26,0,0.35,0,0.44,0C101.31,19.46,101.57,19.63,101.57,20.93z M101.57,26.92
		c0,0.95,0.09,1.65,0,2.26c-0.26,0.95,0.35,1.48,1.14,1.74c0.26,0.09,0.44,0.09,0.7,0.17c1.58,0.61,3.08-0.43,3.52-1.91
		s0.35-3.04,0.35-4.51c-0.09-1.04-0.35-2.08-1.23-2.78c-0.7-0.52-1.41-0.78-2.46-0.43c-0.88,0.35-1.41,0.87-1.76,1.74
		C101.4,24.49,101.57,25.88,101.57,26.92z"/>
	<path class="st1" d="M79.5,17.72c-1.67-0.87-3.17-0.95-4.92-0.78c-0.88,0.17-1.76,0.87-2.02,1.65c-0.26,0.95,0.26,1.91,0.88,2.6
		c0.88,0.61,2.02,0.95,2.9,1.48c1.41,0.78,2.9,1.65,3.61,3.04c0.44,0.95,0.53,2.08,0.35,3.04c-0.35,1.74-1.14,3.12-2.73,3.99
		c-1.32,0.61-2.64,0.78-4.05,0.78c-0.97-0.09-2.11-0.09-3.08-0.52c-0.35-0.17-0.7-0.35-0.79-0.78c-0.26-0.61-0.35-1.39-0.44-2.17
		c1.32,0.43,2.55,0.78,3.78,0.87c1.32,0.09,2.64-0.09,3.61-1.22c0.79-0.87,0.79-2.6-0.09-3.39c-0.88-0.87-1.76-1.3-2.73-1.82
		c-1.23-0.52-2.46-1.04-3.34-2.08c-1.23-1.22-1.41-2.69-1.14-4.25c0.44-2.6,2.99-3.82,5.28-3.99c1.23-0.09,2.46,0.17,3.52,0.52
		c0.35,0.09,0.44,0.17,0.53,0.52C79.24,16.25,79.41,17.03,79.5,17.72z"/>
	<path class="st1" d="M84.6,21.11c1.14-1.74,2.73-2.17,4.49-1.82c1.67,0.35,2.9,1.65,2.99,3.39c0.35,3.47,0,6.94,0.09,10.42
		c0,0.35-0.09,0.43-0.35,0.35c0,0,0,0-0.09,0c-0.7,0-1.58,0.35-2.02-0.09c-0.44-0.35-0.09-1.22-0.09-1.91c0-2.52,0-4.95-0.09-7.55
		c0-0.78,0-1.65-0.88-2.17c-1.23-0.87-3.43-0.43-3.96,1.3c-0.18,0.52-0.26,1.13-0.26,1.74c0,2.6,0,5.21,0,7.81
		c0,0.43-0.26,0.61-0.7,0.61c-0.44,0-0.88,0-1.41,0c-0.44,0-0.53-0.17-0.53-0.61c0-1.65,0-3.39,0-4.95c0-4.25,0-8.42,0-12.76
		c0-0.43,0.09-0.78,0.7-0.61c0.7,0.09,1.41-0.35,2.02,0.09c0.35,0.35,0.09,1.22,0.09,1.82C84.69,17.98,84.6,19.46,84.6,21.11z"/>
	<path class="st1" d="M94.36,26.32c0-2.17,0-4.25,0-6.25c0-0.43,0.09-0.61,0.53-0.52c0.7,0.09,1.41-0.35,2.02,0.17
		c0.35,0.35,0.09,1.22,0.09,1.82c0,3.65,0,7.55,0,11.28c0,0.52-0.09,0.78-0.7,0.61c-0.44-0.09-0.88,0-1.32,0
		c-0.44,0-0.7-0.09-0.7-0.61C94.36,30.66,94.36,28.49,94.36,26.32z"/>
	<path class="st1" d="M97.18,15.9c0.09,0.95-0.88,1.39-1.41,1.39c-0.88,0-1.41-0.52-1.41-1.39c0-0.78,0.79-1.39,1.41-1.39
		C96.56,14.51,97.18,15.03,97.18,15.9z"/>
	<path class="st2" d="M35.88,17.72C35.79,17.72,35.79,17.72,35.88,17.72C35.79,17.72,35.79,17.72,35.88,17.72
		C35.79,17.72,35.79,17.64,35.88,17.72C35.79,17.64,35.79,17.72,35.88,17.72z"/>
	<path class="st2" d="M58.04,31.26C-1.13,38.31,21.12-23.71,65.44,10c-21.57-5.71-27.03,4.96-6.26,14.67c0,0-5.4-0.4-9.94-3.39
		c0,0,3.54,3.18,6.96,4.26c0,0-14.22-3.03-14.61-14.33c0,0-5.4,9.27,11.61,15.88c0,0-24.06-4.34-14.86-19.53
		c0,0-5.73,4.59-2.73,10.16c0,0-9.76-13.76,11.78-15.19C27.37-2.04,5.21,28.67,58.04,31.26z"/>
	<path class="st2" d="M31.63,9.77c-4,2.04-8.63,15.65,18.04,19.16C49.67,28.93,25.96,23.94,31.63,9.77z"/>
</g>
<g id="Layer_2">
</g>
</svg>
